<svg width="20" height="20" viewBox="0 0 20 20" fill="none" xmlns="http://www.w3.org/2000/svg">
<path fill-rule="evenodd" clip-rule="evenodd" d="M6.25 3.12502C5.21447 3.12502 4.375 3.96448 4.375 5.00002V15C4.375 16.0356 5.21447 16.875 6.25 16.875H13.75C14.7855 16.875 15.625 16.0356 15.625 15V7.7589L10.9911 3.12502H6.25ZM3.125 5.00002C3.125 3.27413 4.52411 1.87502 6.25 1.87502H11.25C11.4158 1.87502 11.5747 1.94087 11.6919 2.05808L16.6919 7.05808C16.8092 7.17529 16.875 7.33426 16.875 7.50002V15C16.875 16.7259 15.4759 18.125 13.75 18.125H6.25C4.52411 18.125 3.125 16.7259 3.125 15V5.00002Z" fill="#717171"/>
<path fill-rule="evenodd" clip-rule="evenodd" d="M11.0108 1.92259C11.2444 1.82586 11.5132 1.87933 11.6919 2.05808L16.6919 7.05808C16.8707 7.23683 16.9242 7.50565 16.8274 7.7392C16.7307 7.97274 16.5028 8.12502 16.25 8.12502H13.75C12.0241 8.12502 10.625 6.72591 10.625 5.00002V2.50002C10.625 2.24723 10.7773 2.01933 11.0108 1.92259ZM11.875 4.0089V5.00002C11.875 6.03555 12.7145 6.87502 13.75 6.87502H14.7411L11.875 4.0089Z" fill="#717171"/>
</svg>
