<svg width="36" height="36" viewBox="0 0 36 36" fill="none" xmlns="http://www.w3.org/2000/svg">
<path fill-rule="evenodd" clip-rule="evenodd" d="M17.6188 21.385C17.728 21.385 17.8808 21.363 18.0335 21.34C18.2081 21.318 18.252 21.318 18.3393 21.318C18.9944 21.318 19.3437 21.806 19.3437 22.316C19.3437 22.736 19.1036 23.091 18.7105 23.291C18.3612 23.468 17.9027 23.579 17.4222 23.579C14.6492 23.579 14.0379 21.85 14.0379 19.811V14.846H13.1863C12.1819 14.846 12.0069 14.137 12.0069 13.782C12.0069 13.427 12.1819 12.718 13.1863 12.718H14.0379V10.878C14.0379 9.65896 14.8892 9.43796 15.3262 9.43796C15.7628 9.43796 16.6144 9.65896 16.6144 10.878V12.718H18.252C19.2563 12.718 19.431 13.427 19.431 13.782C19.431 14.137 19.2563 14.846 18.252 14.846H16.6144V19.789C16.6144 20.831 16.9637 21.385 17.6188 21.385ZM0.990208 5.24096C-2.28135 13.588 2.92401 33.184 11.1665 35.68C20.2713 38.436 35.8634 20.935 35.9988 13.752C36.2229 1.85996 5.20074 -5.50104 0.990208 5.24096Z" fill="#F75961"/>
</svg>
